<svg width="38" height="26" viewBox="0 0 38 26" fill="none" xmlns="http://www.w3.org/2000/svg">
<path fill-rule="evenodd" clip-rule="evenodd" d="M19 21C23.9706 21 28 16.9706 28 12C28 7.02943 23.9706 3 19 3C14.0294 3 10 7.02943 10 12C10 16.9706 14.0294 21 19 21Z" stroke="#202020" stroke-width="1.5" stroke-linecap="round" stroke-linejoin="round"/>
<path d="M19 11C20.1046 11 21 10.1046 21 9C21 7.89544 20.1046 7 19 7C17.8954 7 17 7.89544 17 9C17 10.1046 17.8954 11 19 11Z" stroke="#202020" stroke-width="1.5" stroke-linejoin="round"/>
<path d="M13 18C13.1475 15.7662 15.0088 14 17.2832 14H20.7173C22.9888 14 24.8481 15.7616 25 17.9911" stroke="#202020" stroke-width="1.5" stroke-linecap="round" stroke-linejoin="round"/>
</svg>
