<svg width="38" height="26" viewBox="0 0 38 26" fill="none" xmlns="http://www.w3.org/2000/svg">
<path d="M12.5189 5.67556C15.6746 1.89478 22.1066 2.15654 25.5518 5.67558C31.0638 11.3059 25.6854 17.3965 25.6854 17.3965C25.6854 17.3965 22.6894 14.0799 19.1963 14.0799C15.7438 14.0799 12.368 16.9733 12.368 16.9733C12.368 16.9733 7.69244 11.4582 12.5189 5.67556Z" fill="#0E59D6"/>
<path fill-rule="evenodd" clip-rule="evenodd" d="M19 21C23.9706 21 28 16.9706 28 12C28 7.02943 23.9706 3 19 3C14.0294 3 10 7.02943 10 12C10 16.9706 14.0294 21 19 21Z" stroke="#0E59D6" stroke-width="1.5" stroke-linecap="round" stroke-linejoin="round"/>
<path d="M19 11C20.1046 11 21 10.1046 21 9C21 7.89544 20.1046 7 19 7C17.8954 7 17 7.89544 17 9C17 10.1046 17.8954 11 19 11Z" fill="white"/>
<path d="M13 18C13.1475 15.7662 15.0088 14 17.2832 14H20.7173C22.9888 14 24.8481 15.7616 25 17.9911" stroke="#0E59D6" stroke-width="1.5" stroke-linecap="round" stroke-linejoin="round"/>
<path d="M13.7012 18.2936C13.7012 18.2936 13.81 16.406 15.172 15.4628C16.4642 14.5681 17.4812 14.7766 19.0008 14.769C20.5633 14.7612 22.0123 14.6629 22.9414 15.4628C24.1685 16.5194 24.299 18.2936 24.299 18.2936C24.299 18.2936 22.8273 20.1566 19.001 20.25C15.5936 20.25 13.7012 18.2936 13.7012 18.2936Z" fill="white"/>
</svg>
