<svg width="140" height="113" viewBox="0 0 140 113" fill="none" xmlns="http://www.w3.org/2000/svg">
<g clip-path="url(#clip0_1558_12716)">
<path opacity="0.1" d="M72.017 113.001C106.959 113.001 135.284 87.7051 135.284 56.5007C135.284 25.2962 106.959 0 72.017 0C37.0753 0 8.74951 25.2962 8.74951 56.5007C8.74951 87.7051 37.0753 113.001 72.017 113.001Z" fill="#267AEF"/>
<path opacity="0.1" d="M23.3279 89.0206C36.2116 89.0206 46.6558 87.4007 46.6558 85.4025C46.6558 83.4042 36.2116 81.7843 23.3279 81.7843C10.4443 81.7843 0 83.4042 0 85.4025C0 87.4007 10.4443 89.0206 23.3279 89.0206Z" fill="#267AEF"/>
<path opacity="0.1" d="M34.5403 106.258C39.5514 106.258 43.6137 105.418 43.6137 104.382C43.6137 103.346 39.5514 102.507 34.5403 102.507C29.5291 102.507 25.4668 103.346 25.4668 104.382C25.4668 105.418 29.5291 106.258 34.5403 106.258Z" fill="#267AEF"/>
<path opacity="0.1" d="M96.5398 99.0418C101.551 99.0418 105.613 98.202 105.613 97.1662C105.613 96.1303 101.551 95.2906 96.5398 95.2906C91.5286 95.2906 87.4663 96.1303 87.4663 97.1662C87.4663 98.202 91.5286 99.0418 96.5398 99.0418Z" fill="#267AEF"/>
<path opacity="0.1" d="M65.751 97.4675C73.8999 97.4675 80.5059 96.3476 80.5059 94.9662C80.5059 93.5849 73.8999 92.465 65.751 92.465C57.6021 92.465 50.9961 93.5849 50.9961 94.9662C50.9961 96.3476 57.6021 97.4675 65.751 97.4675Z" fill="#267AEF"/>
<path opacity="0.1" d="M109.226 87.4083C126.223 87.4083 140.002 85.2488 140.002 82.585C140.002 79.9212 126.223 77.7617 109.226 77.7617C92.2297 77.7617 78.4512 79.9212 78.4512 82.585C78.4512 85.2488 92.2297 87.4083 109.226 87.4083Z" fill="#267AEF"/>
<path d="M6.37847 74.1666C5.68717 75.5124 5.36429 77.0172 5.44266 78.5283C5.52104 80.0394 5.99787 81.5027 6.82468 82.7696C7.09593 83.1767 7.34549 83.4699 7.54486 83.5472C8.50103 83.9232 10.4161 84.8474 10.4161 84.8474L15.0274 83.0342C15.0274 83.0342 15.7761 79.0714 16.4841 75.669C16.9669 73.3483 17.4335 71.2895 17.6247 70.9285C18.1021 70.0396 17.6247 60.3618 17.6247 60.3618C17.6247 60.3618 13.0134 60.0523 11.7452 63.6094L11.1905 64.6951L6.37847 74.1666Z" fill="#A8A8A8"/>
<path opacity="0.1" d="M12.5007 75.2361C15.3042 78.4511 16.4868 75.6704 16.4868 75.6704C16.9697 73.3496 17.4362 71.2909 17.6275 70.9299C18.1049 70.0409 17.6275 60.3631 17.6275 60.3631C17.6275 60.3631 13.0161 60.0537 11.748 63.6108L11.1933 64.6965C10.838 67.5424 10.4867 72.9221 12.5007 75.2361Z" fill="white"/>
<path d="M13.1167 84.1973L29.392 82.3163L32.2958 63.1968L30.1 58.231C29.1723 56.1163 27.8877 54.1771 26.3024 52.4985C25.197 51.3327 23.8611 50.2117 22.456 49.6485C22.264 49.571 22.0679 49.504 21.8687 49.4476C21.6397 49.378 21.3975 49.3635 21.1619 49.4052C20.9262 49.4469 20.7037 49.5438 20.5125 49.6878C18.5052 51.1115 17.7877 57.1643 17.5558 60.0781C17.4604 61.2755 17.2987 62.4666 17.0716 63.646L13.1167 84.1973Z" fill="#A8A8A8"/>
<path opacity="0.1" d="M23.9516 62.9906L20.5609 71.337C22.3376 70.0369 24.9701 62.9566 24.9701 62.9566L27.3287 71.0289L25.4489 62.521C25.7241 60.6734 25.8041 58.802 25.6876 56.9377C25.5384 54.8015 23.5352 51.3734 22.4474 49.6471C22.2554 49.5696 22.0594 49.5026 21.8602 49.4462C21.6312 49.3766 21.389 49.3621 21.1533 49.4038C20.9176 49.4456 20.6951 49.5424 20.5039 49.6864C21.3584 51.4032 23.4945 55.6959 24.1455 56.9716C24.9715 58.5785 23.9516 62.9906 23.9516 62.9906Z" fill="white"/>
<path d="M26.7197 84.8474H35.5504C35.9137 84.8475 36.2731 84.7736 36.607 84.6304C36.9408 84.4871 37.242 84.2774 37.4923 84.014C37.7427 83.7506 37.9368 83.439 38.063 83.0981C38.1892 82.7573 38.2448 82.3943 38.2264 82.0313C38.0311 78.2421 37.536 71.4863 36.3588 67.1977C35.7227 64.8838 34.9835 63.6691 34.3054 63.0706C33.9874 62.7635 33.5768 62.5703 33.1376 62.521C32.8045 62.4922 32.4711 62.5732 32.1882 62.7517C30.5485 64.3246 28.6334 72.6019 28.6334 72.6019L26.7197 84.8474Z" fill="#A8A8A8"/>
<path opacity="0.1" d="M34.8723 77.5066C35.2358 78.5149 35.3796 79.678 34.8723 80.8112L32.9044 81.7843C32.9044 81.7843 27.6149 79.5409 28.2578 74.9429C28.2578 74.9429 28.4314 73.9929 30.2529 74.0662C31.2773 74.1158 32.2637 74.4694 33.0864 75.0822C33.9091 75.6949 34.5309 76.5389 34.8723 77.5066Z" fill="white"/>
<path opacity="0.1" d="M32.7701 65.4198C32.709 63.8076 33.5838 63.2484 34.3067 63.0706C33.9887 62.7635 33.5782 62.5703 33.139 62.521C32.6358 62.9423 32.2792 63.5125 32.1204 64.1496L30.2759 73.1461C30.2759 73.1461 32.8731 68.1219 32.7701 65.4198Z" fill="white"/>
<path d="M24.3964 72.534L28.7691 78.519L29.5272 83.459L26.717 84.8474L22.6658 85.7431C22.2757 85.8298 21.8745 85.8559 21.4764 85.8205L10.4214 84.8474L11.9255 81.3582L17.12 74.0608L24.3964 72.534Z" fill="#A8A8A8"/>
<path opacity="0.1" d="M22.7041 70.4793C22.7041 70.4793 25.6879 70.6842 24.5677 75.8142C23.4474 80.9442 11.9204 81.3554 11.9204 81.3554C11.9204 81.3554 14.3698 77.0126 18.1376 73.9006C18.5607 73.5519 18.969 73.1881 19.3582 72.8C20.2249 71.9328 21.8822 70.4087 22.7041 70.4793Z" fill="white"/>
<path opacity="0.1" d="M25.3882 74.3471C25.3882 74.3471 29.4312 78.0291 29.0501 83.6952L25.3882 74.3471Z" fill="black"/>
<path opacity="0.1" d="M32.1897 62.7517C32.1897 62.7517 27.9472 68.3974 27.4712 77.0845L32.1897 62.7517Z" fill="black"/>
<path opacity="0.1" d="M17.629 60.359C17.629 60.359 19.6824 69.6894 14.5557 76.7222L17.629 60.359Z" fill="black"/>
<path d="M55.0279 94.9147H77.1542C77.368 94.9135 77.578 94.857 77.7636 94.7507C77.9492 94.6443 78.1041 94.4917 78.2133 94.3077C78.3225 94.1237 78.3823 93.9145 78.3869 93.7006C78.3914 93.4866 78.3405 93.2751 78.2392 93.0866L67.1815 72.5286C67.0755 72.3315 66.9182 72.1668 66.7262 72.052C66.5342 71.9372 66.3147 71.8766 66.091 71.8766C65.8674 71.8766 65.6479 71.9372 65.4559 72.052C65.2639 72.1668 65.1066 72.3315 65.0006 72.5286L53.9375 93.0866C53.8359 93.2755 53.7851 93.4875 53.7899 93.7019C53.7946 93.9163 53.8549 94.1258 53.9647 94.31C54.0746 94.4942 54.2303 94.6467 54.4166 94.7527C54.603 94.8586 54.8136 94.9145 55.0279 94.9147ZM67.4989 91.1581H64.6832V88.342H67.4989V91.1581ZM67.4989 86.4637H64.6832V80.8302H67.4989V86.4637Z" fill="#464353"/>
<path opacity="0.1" d="M55.0279 94.9147H77.1542C77.368 94.9135 77.578 94.857 77.7636 94.7507C77.9492 94.6443 78.1041 94.4917 78.2133 94.3077C78.3225 94.1237 78.3823 93.9145 78.3869 93.7006C78.3914 93.4866 78.3405 93.2751 78.2392 93.0866L67.1815 72.5286C67.0755 72.3315 66.9182 72.1668 66.7262 72.052C66.5342 71.9372 66.3147 71.8766 66.091 71.8766C65.8674 71.8766 65.6479 71.9372 65.4559 72.052C65.2639 72.1668 65.1066 72.3315 65.0006 72.5286L53.9375 93.0866C53.8359 93.2755 53.7851 93.4875 53.7899 93.7019C53.7946 93.9163 53.8549 94.1258 53.9647 94.31C54.0746 94.4942 54.2303 94.6467 54.4166 94.7527C54.603 94.8586 54.8136 94.9145 55.0279 94.9147ZM67.4989 91.1581H64.6832V88.342H67.4989V91.1581ZM67.4989 86.4637H64.6832V80.8302H67.4989V86.4637Z" fill="black"/>
<path d="M55.0279 95.5933H77.1542C77.368 95.5921 77.578 95.5356 77.7636 95.4292C77.9492 95.3229 78.1041 95.1703 78.2133 94.9863C78.3225 94.8022 78.3823 94.5931 78.3869 94.3791C78.3914 94.1652 78.3405 93.9537 78.2392 93.7652L67.1815 73.2071C67.0755 73.0101 66.9182 72.8454 66.7262 72.7306C66.5342 72.6158 66.3147 72.5552 66.091 72.5552C65.8674 72.5552 65.6479 72.6158 65.4559 72.7306C65.2639 72.8454 65.1066 73.0101 65.0006 73.2071L53.9375 93.7652C53.8359 93.9541 53.7851 94.1661 53.7899 94.3805C53.7946 94.5949 53.8549 94.8044 53.9647 94.9886C54.0746 95.1727 54.2303 95.3253 54.4166 95.4312C54.603 95.5372 54.8136 95.593 55.0279 95.5933ZM67.4989 91.8367H64.6832V89.0206H67.4989V91.8367ZM67.4989 87.1423H64.6832V81.5088H67.4989V87.1423Z" fill="#464353"/>
<g opacity="0.1">
<path opacity="0.1" d="M39.5069 36.628C39.5069 36.6687 39.5069 36.7094 39.5151 36.7488C39.5571 36.3511 39.766 35.9779 39.8406 35.5803C39.8694 35.421 39.878 35.2586 39.8663 35.0971C39.8663 35.1677 39.8528 35.2329 39.8406 35.3089C39.7551 35.7567 39.5015 36.172 39.5069 36.628Z" fill="black"/>
</g>
<path opacity="0.1" d="M38.2852 39.9937C38.3494 39.9937 38.3262 39.9937 38.2948 40.0047C38.2634 40.0156 38.2115 40.0156 38.2852 39.9937Z" fill="black"/>
<g opacity="0.1">
<path opacity="0.1" d="M39.2517 35.7106C39.3092 35.3517 39.3337 34.9882 39.3249 34.6249C39.3201 34.8977 39.2957 35.1698 39.2517 35.4391C39.1825 35.8463 39.0618 36.2534 39.0075 36.6687C38.9795 36.8915 38.9691 37.1161 38.9763 37.3405C38.98 37.2066 38.9904 37.073 39.0075 36.9401C39.0618 36.5249 39.1825 36.1218 39.2517 35.7106Z" fill="black"/>
<path opacity="0.1" d="M38.0189 34.975C38.0308 35.0369 38.0394 35.0994 38.0446 35.1623C38.0446 35.1419 38.0446 35.1229 38.0446 35.1026C38.0509 34.9688 38.0409 34.8349 38.0148 34.7036C37.985 34.5611 37.9361 34.4199 37.9131 34.2761C37.9064 34.3082 37.9023 34.3409 37.9009 34.3738C37.9154 34.5783 37.9551 34.7802 38.0189 34.975Z" fill="black"/>
</g>
<path d="M94.3046 69.361C94.3046 69.361 91.1581 73.5044 88.5472 73.5383C85.9364 73.5722 84.4038 75.2836 85.6435 76.353C86.8831 77.4225 100.392 75.7423 100.392 75.7423C100.392 75.7423 100.519 70.6503 99.3486 69.9066C98.1781 69.1629 94.3046 69.361 94.3046 69.361Z" fill="#444176"/>
<path d="M128.137 74.3349C128.137 74.3349 128.618 77.6165 127.131 79.8544C125.643 82.0924 129.819 82.9555 129.819 82.9555C129.819 82.9555 132.853 83.801 133.074 80.8017C133.295 77.8024 133.223 75.5089 132.938 75.2646C132.653 75.0203 132.416 73.3334 132.416 73.3334L128.137 74.3349Z" fill="#444176"/>
<path d="M80.5044 80.533C80.5044 80.533 80.3946 69.9188 90.8908 65.6044L93.328 60.9643L94.4971 58.1143C94.9205 57.0821 95.5865 56.1673 96.4386 55.4476C97.2908 54.728 98.3039 54.2247 99.3919 53.9805L101.283 53.5557L101.867 51.0911C102.179 49.7737 102.869 48.5764 103.852 47.6469C104.836 46.7174 106.07 46.0965 107.402 45.8607C108.552 45.6471 109.718 45.5381 110.888 45.5349C111.405 45.5427 111.912 45.6843 112.358 45.9459C112.805 46.2075 113.176 46.5802 113.436 47.0278C113.436 47.0278 123.38 46.9179 123.821 52.3356C123.821 52.3356 124.817 57.3095 126.253 58.1944C126.253 58.1944 128.683 57.642 131.114 61.1801L133.765 70.2458C133.765 70.2458 140.726 76.7683 138.626 82.7316C138.626 82.7316 135.754 86.822 121.17 84.0575C121.17 84.0575 105.591 88.8075 97.2992 82.2932C97.2978 82.3014 83.4882 84.9546 80.5044 80.533Z" fill="#A8A8A8"/>
<path opacity="0.1" d="M87.4648 78.8746C87.4648 78.8746 89.6756 75.7789 89.5644 73.5668C89.4532 71.3546 90.0852 65.9668 90.0852 65.9668" stroke="black" stroke-miterlimit="10"/>
<path opacity="0.1" d="M95.5303 70.5824C95.5303 70.5824 97.7396 66.492 97.5186 64.2812C97.5186 64.2812 99.8391 60.074 101.606 60.4106" stroke="black" stroke-miterlimit="10"/>
<path opacity="0.1" d="M107.684 58.9734C107.684 58.9734 113.76 56.7626 114.092 54.9942" stroke="black" stroke-miterlimit="10"/>
<path opacity="0.1" d="M109.894 64.06C109.894 64.06 116.302 61.1855 116.302 60.4106H119.504C119.504 60.4106 124.145 66.492 123.593 69.1452" stroke="black" stroke-miterlimit="10"/>
<path opacity="0.1" d="M117.407 68.4816C117.407 68.4816 111.22 68.0391 109.009 69.8088C106.798 71.5786 102.822 72.4621 102.822 72.4621C102.822 72.4621 100.501 77.4374 99.617 78.3209C98.7327 79.2044 97.2964 82.3014 97.2964 82.3014" stroke="black" stroke-miterlimit="10"/>
<path opacity="0.1" d="M117.407 74.3417C117.407 74.3417 118.069 76.6624 118.953 77.9897C119.838 79.317 121.163 84.0697 121.163 84.0697" stroke="black" stroke-miterlimit="10"/>
<path opacity="0.1" d="M127.792 81.0854C127.792 81.0854 129.194 84.9899 130.427 85.0279" stroke="black" stroke-miterlimit="10"/>
<path opacity="0.1" d="M118.606 64.326C118.606 64.326 122.249 65.3112 123.772 67.6985C125.295 70.0857 129.947 72.2503 129.947 72.2503" stroke="black" stroke-miterlimit="10"/>
<path opacity="0.1" d="M120.168 52.565C120.168 52.565 120.168 57.6502 121.605 57.6502C123.041 57.6502 126.246 58.2025 126.246 58.2025" stroke="black" stroke-miterlimit="10"/>
<path opacity="0.1" d="M113.129 46.5257C113.129 46.5257 112.762 55.3105 110.883 57.5851" stroke="black" stroke-miterlimit="10"/>
<g opacity="0.05">
<path opacity="0.05" d="M133.538 70.14L130.886 61.0743C128.456 57.5362 126.025 58.0885 126.025 58.0885C124.589 57.2037 123.595 52.2284 123.595 52.2284C123.153 46.8107 113.208 46.922 113.208 46.922C112.948 46.4735 112.576 46.1003 112.128 45.8387C111.681 45.5771 111.173 45.436 110.655 45.4291C110.185 45.4291 109.705 45.444 109.225 45.4834C109.496 45.5105 109.756 45.549 110.005 45.5987L110.778 46.926C110.778 46.926 120.721 46.8147 121.163 52.2325C121.163 52.2325 122.159 57.2078 123.595 58.0926C123.595 58.0926 126.025 57.5389 128.456 61.0783L131.107 70.1441C131.107 70.1441 138.068 76.6665 135.968 82.6298C135.968 82.6298 134.551 84.6479 128.655 84.8922C136.604 85.1839 138.399 82.6298 138.399 82.6298C140.498 76.6624 133.538 70.14 133.538 70.14Z" fill="black"/>
<path opacity="0.05" d="M94.6463 82.1901C92.3074 82.6112 89.9424 82.8702 87.5679 82.965C90.336 83.0709 93.2154 82.771 95.0708 82.5158C94.927 82.4059 94.786 82.3 94.6463 82.1901Z" fill="black"/>
<path opacity="0.05" d="M118.511 83.9598C115.11 84.9144 111.608 85.4682 108.079 85.6101C113.171 85.7947 117.996 84.732 119.984 84.2217C119.504 84.1417 119.017 84.0507 118.511 83.9598Z" fill="black"/>
</g>
<path d="M30.2246 101.204C30.2246 101.204 33.264 101.11 34.1795 100.457C35.095 99.8045 38.8532 99.0255 39.0811 100.072C39.3089 101.118 43.6476 105.276 40.2163 105.305C36.7849 105.333 32.2455 104.77 31.3313 104.212C30.4172 103.655 30.2246 101.204 30.2246 101.204Z" fill="#A8A8A8"/>
<path opacity="0.2" d="M40.2787 104.94C36.8473 104.968 32.3065 104.405 31.3924 103.854C30.6966 103.429 30.4186 101.907 30.3263 101.205H30.2246C30.2246 101.205 30.4172 103.657 31.3313 104.214C32.2455 104.77 36.7863 105.334 40.2163 105.306C41.2077 105.298 41.5495 104.945 41.5305 104.423C41.3935 104.738 41.0151 104.935 40.2787 104.94Z" fill="black"/>
<path d="M104.323 93.5765C104.323 93.5765 100.744 92.86 99.7905 91.9045C98.8371 90.9491 94.5417 89.2798 94.0643 90.4727C93.5869 91.6657 87.6234 95.7249 91.6787 96.4442C95.7339 97.1635 101.221 97.3942 102.415 96.9219C103.608 96.4496 104.323 93.5765 104.323 93.5765Z" fill="#A8A8A8"/>
<path opacity="0.2" d="M91.6787 95.9936C95.7354 96.7088 101.221 96.9436 102.415 96.47C103.322 96.1063 103.954 94.3596 104.204 93.5467L104.323 93.5724C104.323 93.5724 103.607 96.436 102.415 96.9138C101.223 97.3915 95.7354 97.1526 91.6787 96.436C90.5083 96.2298 90.1733 95.7439 90.2994 95.1305C90.3998 95.5349 90.808 95.843 91.6787 95.9936Z" fill="black"/>
<path opacity="0.1" d="M70.0515 15.5868H69.1997C69.358 15.5868 69.5098 15.5239 69.6217 15.4119C69.7336 15.2999 69.7965 15.148 69.7965 14.9897C69.7965 14.8313 69.7336 14.6794 69.6217 14.5674C69.5098 14.4554 69.358 14.3925 69.1997 14.3925H62.299C62.1407 14.3925 61.9889 14.4554 61.877 14.5674C61.7651 14.6794 61.7022 14.8313 61.7022 14.9897C61.7022 15.148 61.7651 15.2999 61.877 15.4119C61.9889 15.5239 62.1407 15.5868 62.299 15.5868H63.1507C62.9976 15.5941 62.8531 15.6602 62.7473 15.7712C62.6415 15.8823 62.5824 16.0298 62.5824 16.1833C62.5824 16.3367 62.6415 16.4843 62.7473 16.5953C62.8531 16.7064 62.9976 16.7724 63.1507 16.7797H61.9586C61.8003 16.7797 61.6485 16.8427 61.5366 16.9546C61.4247 17.0666 61.3618 17.2185 61.3618 17.3769C61.3618 17.5353 61.4247 17.6871 61.5366 17.7991C61.6485 17.9111 61.8003 17.974 61.9586 17.974H68.8593C69.0176 17.974 69.1694 17.9111 69.2813 17.7991C69.3932 17.6871 69.4561 17.5353 69.4561 17.3769C69.4561 17.2185 69.3932 17.0666 69.2813 16.9546C69.1694 16.8427 69.0176 16.7797 68.8593 16.7797H70.0515C70.1321 16.7836 70.2127 16.771 70.2884 16.7428C70.3641 16.7145 70.4332 16.6712 70.4917 16.6155C70.5501 16.5597 70.5967 16.4926 70.6285 16.4184C70.6603 16.3441 70.6767 16.2641 70.6767 16.1833C70.6767 16.1025 70.6603 16.0225 70.6285 15.9482C70.5967 15.8739 70.5501 15.8069 70.4917 15.7511C70.4332 15.6953 70.3641 15.652 70.2884 15.6238C70.2127 15.5955 70.1321 15.583 70.0515 15.5868Z" fill="#267AEF"/>
<path opacity="0.1" d="M96.8541 36.5968H96.0024C96.1556 36.5895 96.3001 36.5234 96.4059 36.4124C96.5117 36.3013 96.5707 36.1538 96.5707 36.0003C96.5707 35.8469 96.5117 35.6993 96.4059 35.5883C96.3001 35.4772 96.1556 35.4112 96.0024 35.4039H89.0949C89.0142 35.4 88.9336 35.4126 88.8579 35.4408C88.7823 35.4691 88.7131 35.5124 88.6547 35.5681C88.5962 35.6239 88.5497 35.691 88.5179 35.7652C88.4861 35.8395 88.4697 35.9195 88.4697 36.0003C88.4697 36.0811 88.4861 36.1611 88.5179 36.2354C88.5497 36.3097 88.5962 36.3767 88.6547 36.4325C88.7131 36.4883 88.7823 36.5316 88.8579 36.5598C88.9336 36.5881 89.0142 36.6006 89.0949 36.5968H89.9466C89.7935 36.6041 89.649 36.6701 89.5432 36.7812C89.4374 36.8922 89.3783 37.0398 89.3783 37.1932C89.3783 37.3467 89.4374 37.4943 89.5432 37.6053C89.649 37.7164 89.7935 37.7824 89.9466 37.7897H88.7545C88.5962 37.7897 88.4444 37.8526 88.3325 37.9646C88.2206 38.0766 88.1577 38.2285 88.1577 38.3869C88.1577 38.5452 88.2206 38.6971 88.3325 38.8091C88.4444 38.9211 88.5962 38.984 88.7545 38.984H95.6538C95.8121 38.984 95.9639 38.9211 96.0758 38.8091C96.1877 38.6971 96.2506 38.5452 96.2506 38.3869C96.2506 38.2285 96.1877 38.0766 96.0758 37.9646C95.9639 37.8526 95.8121 37.7897 95.6538 37.7897H96.8541C96.9348 37.7936 97.0154 37.781 97.0911 37.7528C97.1668 37.7245 97.2359 37.6812 97.2944 37.6254C97.3528 37.5697 97.3994 37.5026 97.4312 37.4283C97.4629 37.354 97.4793 37.2741 97.4793 37.1932C97.4793 37.1124 97.4629 37.0325 97.4312 36.9582C97.3994 36.8839 97.3528 36.8168 97.2944 36.7611C97.2359 36.7053 97.1668 36.662 97.0911 36.6337C97.0154 36.6055 96.9348 36.5929 96.8541 36.5968Z" fill="#267AEF"/>
<path opacity="0.1" d="M57.1387 32.7099H56.2869C56.3676 32.7138 56.4482 32.7012 56.5239 32.673C56.5995 32.6447 56.6687 32.6014 56.7271 32.5456C56.7856 32.4899 56.8321 32.4228 56.8639 32.3485C56.8957 32.2742 56.9121 32.1943 56.9121 32.1135C56.9121 32.0326 56.8957 31.9527 56.8639 31.8784C56.8321 31.8041 56.7856 31.737 56.7271 31.6813C56.6687 31.6255 56.5995 31.5822 56.5239 31.554C56.4482 31.5257 56.3676 31.5131 56.2869 31.517H49.3848C49.3042 31.5131 49.2235 31.5257 49.1479 31.554C49.0722 31.5822 49.003 31.6255 48.9446 31.6813C48.8861 31.737 48.8396 31.8041 48.8078 31.8784C48.776 31.9527 48.7596 32.0326 48.7596 32.1135C48.7596 32.1943 48.776 32.2742 48.8078 32.3485C48.8396 32.4228 48.8861 32.4899 48.9446 32.5456C49.003 32.6014 49.0722 32.6447 49.1479 32.673C49.2235 32.7012 49.3042 32.7138 49.3848 32.7099H50.2366C50.1559 32.7061 50.0753 32.7186 49.9996 32.7469C49.9239 32.7751 49.8548 32.8184 49.7963 32.8742C49.7379 32.93 49.6913 32.997 49.6596 33.0713C49.6278 33.1456 49.6114 33.2256 49.6114 33.3064C49.6114 33.3872 49.6278 33.4672 49.6596 33.5415C49.6913 33.6157 49.7379 33.6828 49.7963 33.7386C49.8548 33.7943 49.9239 33.8376 49.9996 33.8659C50.0753 33.8941 50.1559 33.9067 50.2366 33.9028H49.0431C48.8848 33.9028 48.733 33.9658 48.6211 34.0777C48.5092 34.1897 48.4463 34.3416 48.4463 34.5C48.4463 34.6584 48.5092 34.8102 48.6211 34.9222C48.733 35.0342 48.8848 35.0971 49.0431 35.0971H55.9438C56.102 35.0971 56.2538 35.0342 56.3658 34.9222C56.4777 34.8102 56.5405 34.6584 56.5405 34.5C56.5405 34.3416 56.4777 34.1897 56.3658 34.0777C56.2538 33.9658 56.102 33.9028 55.9438 33.9028H57.1359C57.2166 33.9067 57.2972 33.8941 57.3729 33.8659C57.4486 33.8376 57.5177 33.7943 57.5762 33.7386C57.6346 33.6828 57.6812 33.6157 57.713 33.5415C57.7448 33.4672 57.7611 33.3872 57.7611 33.3064C57.7611 33.2256 57.7448 33.1456 57.713 33.0713C57.6812 32.997 57.6346 32.93 57.5762 32.8742C57.5177 32.8184 57.4486 32.7751 57.3729 32.7469C57.2972 32.7186 57.2166 32.7061 57.1359 32.7099H57.1387Z" fill="#267AEF"/>
</g>
<defs>
<clipPath id="clip0_1558_12716">
<rect width="140" height="113" fill="white"/>
</clipPath>
</defs>
</svg>
