<svg width="24" height="24" viewBox="0 0 24 24" fill="none" xmlns="http://www.w3.org/2000/svg">
<path d="M14.7836 6.88851L16.4448 8.54892L14.7836 6.88851ZM15.8519 5.42575L11.36 9.91756C11.128 10.1493 10.9697 10.4446 10.9051 10.7662L10.4902 12.8431L12.5671 12.4274C12.8887 12.3631 13.1836 12.2054 13.4158 11.9733L17.9076 7.48146C18.0425 7.34648 18.1496 7.18623 18.2227 7.00987C18.2957 6.83352 18.3333 6.64449 18.3333 6.4536C18.3333 6.26271 18.2957 6.07369 18.2227 5.89733C18.1496 5.72097 18.0425 5.56073 17.9076 5.42575C17.7726 5.29077 17.6123 5.1837 17.436 5.11065C17.2596 5.0376 17.0706 5 16.8797 5C16.6888 5 16.4998 5.0376 16.3234 5.11065C16.1471 5.1837 15.9868 5.29077 15.8519 5.42575V5.42575Z" stroke="#0E59D6" stroke-linecap="round" stroke-linejoin="round"/>
<path d="M16.7648 14.4117V16.7647C16.7648 17.1807 16.5996 17.5797 16.3054 17.8739C16.0112 18.1681 15.6122 18.3333 15.1962 18.3333H6.56864C6.15261 18.3333 5.75362 18.1681 5.45945 17.8739C5.16527 17.5797 5 17.1807 5 16.7647V8.13716C5 7.72113 5.16527 7.32213 5.45945 7.02796C5.75362 6.73378 6.15261 6.56851 6.56864 6.56851H8.92161" stroke="#0E59D6" stroke-linecap="round" stroke-linejoin="round"/>
</svg>
