<svg width="89" height="71" viewBox="0 0 89 71" fill="none" xmlns="http://www.w3.org/2000/svg">
<path d="M0 27.7574C0 27.0549 0.368598 26.4038 0.971008 26.0424L43.3447 0.618198C43.9787 0.237755 44.771 0.238209 45.4046 0.619378L64.0131 11.8135L56.5241 18.599L44.375 11.3226L32.2645 18.599L44.375 25.8484L56.5241 18.599L64.0131 11.8135L73.7734 17.6529L64.6488 23.4841L44.375 35.6456L24.0942 23.491L17.5604 27.3977L44.375 43.4875L71.1733 27.3946L79.3435 32.2943L44.375 53.25L9.40889 32.3036V38.7033L44.375 59.4625L79.3435 38.6921V32.2943L71.1733 27.3946L64.6488 23.4841L73.7734 17.6529L87.779 26.0563C88.3814 26.4177 88.75 27.0687 88.75 27.7712V43.2426C88.75 43.9451 88.3814 44.5962 87.779 44.9576L45.404 70.3826C44.7706 70.7626 43.9794 70.7626 43.346 70.3826L0.971008 44.9576C0.368598 44.5962 0 43.9451 0 43.2426V27.7574Z" fill="#0E59D6"/>
<path d="M44.4131 0.335944C43.6719 0.277358 42.7283 0.994958 42.7283 0.994958L0.970684 26.0603C0.368458 26.4218 0 27.0727 0 27.7751V43.2193C0 43.9215 0.36829 44.5723 0.970298 44.9338L42.3469 69.7831C42.3469 69.7831 43.0093 70.1759 43.3867 70.4023C43.8359 70.6719 44.4131 70.6719 44.4131 70.6719V0.335944Z" fill="black" fill-opacity="0.2"/>
</svg>
